<?xml version="1.0" encoding="utf-8"?><!-- Uploaded to: SVG Repo, www.svgrepo.com, Generator: SVG Repo Mixer Tools -->
<svg width="800px" height="800px" viewBox="0 0 24 24" fill="none" xmlns="http://www.w3.org/2000/svg">
<path d="M18.5249 9.46C18.8317 10.2474 19 11.1041 19 12C19 15.866 15.866 19 12 19H9M9 19L11 17M9 19L11 21M5.47507 14.54C5.16832 13.7526 5 12.8959 5 12C5 8.13401 8.13401 5 12 5H15M15 5L13 3M15 5L13 7M14 12C14 13.1045 13.1046 14 12 14C10.8954 14 10 13.1045 10 12C10 10.8954 10.8954 9.99996 12 9.99996C13.1046 9.99996 14 10.8954 14 12Z" stroke="currentColor" stroke-width="2" stroke-linecap="round" stroke-linejoin="round"/>
</svg>